<svg xmlns="http://www.w3.org/2000/svg" width="390" height="190" viewBox="0 0 390 190">
<defs><linearGradient id="g" x1="0" x2="1"><stop stop-color="#06101b"/><stop offset="1" stop-color="#0a1624"/></linearGradient></defs>
<rect x="1" y="1" width="388" height="188" rx="16" fill="url(#g)" stroke="#22679a"/>
<rect x="21" y="26" width="62" height="62" rx="14" fill="#172a60" stroke="#6f82ff"/>
<circle cx="42" cy="49" r="9" fill="#8e9cff"/><circle cx="64" cy="44" r="7" fill="#7085ff"/>
<path d="M29 75c3-12 22-12 26 0M55 69c3-9 16-9 20 0" fill="none" stroke="#c4cbff" stroke-width="3" stroke-linecap="round"/>
<text x="104" y="48" fill="#f0f6fc" font-family="Arial" font-size="22" font-weight="700">Teams Membership Export</text>
<text x="104" y="72" fill="#9fb3c8" font-family="Arial" font-size="13">Microsoft 365 admin utility</text>
<text x="24" y="116" fill="#c9d1d9" font-family="Arial" font-size="13">Memberships · roles · Excel export</text>
<g font-family="Arial" font-size="11" fill="#b6c2cf">
<rect x="24" y="138" width="82" height="24" rx="8" fill="#172331"/><text x="65" y="154" text-anchor="middle">PowerShell</text>
<rect x="114" y="138" width="54" height="24" rx="8" fill="#172331"/><text x="141" y="154" text-anchor="middle">Teams</text>
<rect x="176" y="138" width="52" height="24" rx="8" fill="#172331"/><text x="202" y="154" text-anchor="middle">M365</text>
<rect x="236" y="138" width="54" height="24" rx="8" fill="#172331"/><text x="263" y="154" text-anchor="middle">Excel</text>
</g>
<text x="356" y="160" fill="#58b8ff" font-family="Arial" font-size="24">→</text>
</svg>